<svg width="177" height="40" viewBox="0 0 177 40" fill="none" xmlns="http://www.w3.org/2000/svg"><path d="M56.0488 21.0723C56.4785 21.0723 56.8509 21.2298 57.166 21.5449C57.4668 21.8457 57.6172 22.2181 57.6172 22.6621C57.6172 23.722 57.6172 25.3047 57.6172 27.4102C57.6172 27.8542 57.4668 28.2266 57.166 28.5273C56.8509 28.8424 56.4785 29 56.0488 29C54.9889 29 53.3991 29 51.2793 29C50.5775 29 49.5247 29 48.1211 29C48.1211 28.2982 48.1211 27.2454 48.1211 25.8418C48.1211 25.1257 48.1211 24.0658 48.1211 22.6621C48.1211 21.9603 48.1211 20.9076 48.1211 19.5039C48.1211 19.1458 48.1211 18.7018 48.1211 18.1719C48.1211 17.6419 48.1211 17.026 48.1211 16.3242C48.1211 15.6224 48.1211 14.5697 48.1211 13.166C48.8229 13.166 49.8757 13.166 51.2793 13.166C52.3392 13.166 53.929 13.166 56.0488 13.166C56.4785 13.166 56.8509 13.3164 57.166 13.6172C57.4668 13.9323 57.6172 14.3047 57.6172 14.7344C57.6172 15.7943 57.6172 17.3841 57.6172 19.5039C57.6172 19.9336 57.4668 20.306 57.166 20.6211C56.8509 20.9219 56.4785 21.0723 56.0488 21.0723ZM51.2793 19.5039C51.9954 19.5039 53.0553 19.5039 54.459 19.5039C54.459 19.375 54.459 19.1888 54.459 18.9453C54.459 18.3581 54.459 17.4844 54.459 16.3242C53.7572 16.3242 52.6973 16.3242 51.2793 16.3242C51.2793 17.026 51.2793 18.0859 51.2793 19.5039ZM51.2793 25.8418C51.9954 25.8418 53.0553 25.8418 54.459 25.8418C54.459 25.7129 54.459 25.5267 54.459 25.2832C54.459 24.696 54.459 23.8223 54.459 22.6621C53.7572 22.6621 52.6973 22.6621 51.2793 22.6621C51.2793 23.3639 51.2793 24.4238 51.2793 25.8418ZM70.293 16.3242C70.293 15.7943 70.293 14.7415 70.293 13.166C69.2474 13.166 67.1348 13.166 63.9551 13.166C63.4395 13.166 62.3867 13.166 60.7969 13.166C60.7969 13.696 60.7969 14.7487 60.7969 16.3242C60.7969 16.8542 60.7969 17.9141 60.7969 19.5039C60.7969 20.0195 60.7969 21.0723 60.7969 22.6621C60.7969 23.1921 60.7969 24.252 60.7969 25.8418C60.7969 26.1855 60.7969 26.6224 60.7969 27.1523C60.7969 27.6823 60.7969 28.2982 60.7969 29C61.4987 29 62.5514 29 63.9551 29C65.373 29 67.4857 29 70.293 29C70.293 28.2982 70.293 27.2454 70.293 25.8418C68.8893 25.8418 66.7767 25.8418 63.9551 25.8418C63.9551 25.1257 63.9551 24.0658 63.9551 22.6621C65.015 22.6621 66.6048 22.6621 68.7246 22.6621C68.7246 21.9603 68.7246 20.9076 68.7246 19.5039C67.6647 19.5039 66.0749 19.5039 63.9551 19.5039C63.9551 18.7878 63.9551 17.7279 63.9551 16.3242C65.373 16.3242 67.4857 16.3242 70.293 16.3242ZM82.9688 13.166C81.3932 13.166 78.2279 13.166 73.4727 13.166C73.4727 13.4238 73.4727 13.8177 73.4727 14.3477C73.4727 14.8776 73.4727 15.5365 73.4727 16.3242C74.0026 16.3242 75.0553 16.3242 76.6309 16.3242C76.6309 18.444 76.6309 22.6693 76.6309 29C77.1608 29 78.2207 29 79.8105 29C79.8105 26.8945 79.8105 22.6693 79.8105 16.3242C80.5124 16.3242 81.5651 16.3242 82.9688 16.3242C82.9688 15.6224 82.9688 14.5697 82.9688 13.166ZM95.6445 13.166C94.069 13.166 90.9036 13.166 86.1484 13.166C86.1484 13.4238 86.1484 13.8177 86.1484 14.3477C86.1484 14.8776 86.1484 15.5365 86.1484 16.3242C86.6784 16.3242 87.7311 16.3242 89.3066 16.3242C89.3066 18.444 89.3066 22.6693 89.3066 29C89.8366 29 90.8965 29 92.4863 29C92.4863 26.8945 92.4863 22.6693 92.4863 16.3242C93.1882 16.3242 94.2409 16.3242 95.6445 16.3242C95.6445 15.6224 95.6445 14.5697 95.6445 13.166ZM108.32 16.3242C108.32 15.7943 108.32 14.7415 108.32 13.166C107.275 13.166 105.162 13.166 101.982 13.166C101.467 13.166 100.414 13.166 98.8242 13.166C98.8242 13.696 98.8242 14.7487 98.8242 16.3242C98.8242 16.8542 98.8242 17.9141 98.8242 19.5039C98.8242 20.0195 98.8242 21.0723 98.8242 22.6621C98.8242 23.0059 98.8242 23.4427 98.8242 23.9727C98.8242 24.5026 98.8242 25.1257 98.8242 25.8418C98.8242 26.5436 98.8242 27.5964 98.8242 29C99.526 29 100.579 29 101.982 29C103.4 29 105.513 29 108.32 29C108.32 28.2982 108.32 27.2454 108.32 25.8418C106.917 25.8418 104.804 25.8418 101.982 25.8418C101.982 25.1257 101.982 24.0658 101.982 22.6621C103.042 22.6621 104.632 22.6621 106.752 22.6621C106.752 21.9603 106.752 20.9076 106.752 19.5039C105.692 19.5039 104.102 19.5039 101.982 19.5039C101.982 18.7878 101.982 17.7279 101.982 16.3242C103.4 16.3242 105.513 16.3242 108.32 16.3242ZM119.428 21.0723C119.857 21.0723 120.23 21.2298 120.545 21.5449C120.846 21.8457 120.996 22.2181 120.996 22.6621C120.996 24.0658 120.996 26.1784 120.996 29C120.294 29 119.242 29 117.838 29C117.838 27.5964 117.838 25.4837 117.838 22.6621C117.136 22.6621 116.076 22.6621 114.658 22.6621C114.658 24.0658 114.658 26.1784 114.658 29C113.956 29 112.904 29 111.5 29C111.5 27.5964 111.5 25.4837 111.5 22.6621C111.5 21.9603 111.5 20.9076 111.5 19.5039C111.5 18.8021 111.5 17.9212 111.5 16.8613C111.5 15.8014 111.5 14.5697 111.5 13.166C112.202 13.166 113.255 13.166 114.658 13.166C115.718 13.166 117.308 13.166 119.428 13.166C119.857 13.166 120.23 13.3164 120.545 13.6172C120.846 13.9323 120.996 14.3047 120.996 14.7344C120.996 15.7943 120.996 17.3841 120.996 19.5039C120.996 19.9336 120.846 20.306 120.545 20.6211C120.23 20.9219 119.857 21.0723 119.428 21.0723ZM117.838 19.5039C117.838 19.375 117.838 19.1888 117.838 18.9453C117.838 18.3581 117.838 17.4844 117.838 16.3242C117.136 16.3242 116.076 16.3242 114.658 16.3242C114.658 17.026 114.658 18.0859 114.658 19.5039C115.374 19.5039 116.434 19.5039 117.838 19.5039ZM130.514 17.9141C130.514 17.556 130.514 17.026 130.514 16.3242C129.812 16.3242 128.752 16.3242 127.334 16.3242C127.334 18.444 127.334 21.6165 127.334 25.8418C128.05 25.8418 129.11 25.8418 130.514 25.8418C130.514 25.4837 130.514 24.9538 130.514 24.252C131.215 24.252 132.268 24.252 133.672 24.252C133.672 24.9538 133.672 26.0065 133.672 27.4102C133.672 27.8542 133.521 28.2266 133.221 28.5273C132.906 28.8424 132.533 29 132.104 29C130.686 29 128.573 29 125.766 29C125.322 29 124.949 28.8424 124.648 28.5273C124.333 28.2266 124.176 27.8542 124.176 27.4102C124.176 26.3503 124.176 24.7604 124.176 22.6406C124.176 21.7669 124.176 20.6784 124.176 19.375C124.176 18.043 124.176 16.4961 124.176 14.7344C124.176 14.3047 124.333 13.9323 124.648 13.6172C124.949 13.3164 125.322 13.166 125.766 13.166C127.169 13.166 129.282 13.166 132.104 13.166C132.533 13.166 132.906 13.3164 133.221 13.6172C133.521 13.9323 133.672 14.3047 133.672 14.7344C133.672 15.4505 133.672 16.5104 133.672 17.9141C132.97 17.9141 131.917 17.9141 130.514 17.9141ZM143.189 13.166C143.189 14.2116 143.189 16.3242 143.189 19.5039C142.66 19.5039 141.6 19.5039 140.01 19.5039C140.01 18.444 140.01 16.3314 140.01 13.166C139.494 13.166 138.441 13.166 136.852 13.166C136.852 14.2116 136.852 16.3242 136.852 19.5039C136.852 20.0195 136.852 21.0723 136.852 22.6621C136.852 23.3639 136.852 24.2448 136.852 25.3047C136.852 26.3646 136.852 27.5964 136.852 29C137.553 29 138.606 29 140.01 29C140.01 27.5964 140.01 25.4837 140.01 22.6621C140.726 22.6621 141.786 22.6621 143.189 22.6621C143.189 24.0658 143.189 26.1784 143.189 29C143.891 29 144.944 29 146.348 29C146.348 27.5964 146.348 25.4837 146.348 22.6621C146.348 21.9603 146.348 20.9076 146.348 19.5039C146.348 18.0859 146.348 15.9733 146.348 13.166C145.646 13.166 144.593 13.166 143.189 13.166ZM159.023 29C158.322 29 157.269 29 155.865 29C155.865 27.5964 155.865 25.4837 155.865 22.6621C155.163 22.6621 154.104 22.6621 152.686 22.6621C152.686 24.0658 152.686 26.1784 152.686 29C151.984 29 150.931 29 149.527 29C149.527 27.8112 149.527 26.0208 149.527 23.6289C149.527 22.6406 149.527 21.4089 149.527 19.9336C149.527 18.444 149.527 16.7109 149.527 14.7344C149.527 14.3047 149.685 13.9323 150 13.6172C150.301 13.3164 150.673 13.166 151.117 13.166C152.521 13.166 154.633 13.166 157.455 13.166C157.885 13.166 158.257 13.3164 158.572 13.6172C158.873 13.9323 159.023 14.3047 159.023 14.7344C159.023 17.9141 159.023 22.6693 159.023 29ZM155.865 19.5039C155.865 19.375 155.865 19.1888 155.865 18.9453C155.865 18.3581 155.865 17.4844 155.865 16.3242C155.163 16.3242 154.104 16.3242 152.686 16.3242C152.686 17.026 152.686 18.0859 152.686 19.5039C153.402 19.5039 154.462 19.5039 155.865 19.5039ZM171.699 13.166C170.124 13.166 166.958 13.166 162.203 13.166C162.203 13.4238 162.203 13.8177 162.203 14.3477C162.203 14.8776 162.203 15.5365 162.203 16.3242C162.733 16.3242 163.786 16.3242 165.361 16.3242C165.361 18.444 165.361 22.6693 165.361 29C165.891 29 166.951 29 168.541 29C168.541 26.8945 168.541 22.6693 168.541 16.3242C169.243 16.3242 170.296 16.3242 171.699 16.3242C171.699 15.6224 171.699 14.5697 171.699 13.166Z" fill="var(--secondary)"/><path d="M9.55208 29.405V35.1387L11.8404 33.7548L19.033 29.405H26.1667C27.8327 29.405 29.1875 28.0393 29.1875 26.36V14.18C29.1875 12.5007 27.8327 11.135 26.1667 11.135H8.04166C6.37567 11.135 5.02083 12.5007 5.02083 14.18V26.36C5.02083 28.0393 6.37567 29.405 8.04166 29.405H9.55208ZM8.04166 14.18H26.1667V26.36H18.1962L12.5729 29.7613V26.36H8.04166V14.18Z" fill="var(--main)"/><path d="M32.2083 5.045H14.0833C12.4173 5.045 11.0625 6.41068 11.0625 8.09H29.1875C30.8535 8.09 32.2083 9.45568 32.2083 11.135V23.315C33.8743 23.315 35.2292 21.9493 35.2292 20.27V8.09C35.2292 6.41068 33.8743 5.045 32.2083 5.045Z" fill="var(--main)"/></svg>
